<?xml version="1.0" standalone="no"?>
<!DOCTYPE svg PUBLIC "-//W3C//DTD SVG 20010904//EN"
 "http://www.w3.org/TR/2001/REC-SVG-20010904/DTD/svg10.dtd">
<svg version="1.0" xmlns="http://www.w3.org/2000/svg"
 width="1507.000000pt" height="1507.000000pt" viewBox="0 0 1507.000000 1507.000000"
 preserveAspectRatio="xMidYMid meet">
<metadata>
Created by potrace 1.14, written by Peter Selinger 2001-2017
</metadata>
<g transform="translate(0.000000,1507.000000) scale(0.100000,-0.100000)"
fill="#000000" stroke="none">
<path d="M10607 13673 c-1 -1 -43 -4 -92 -8 -50 -3 -101 -8 -115 -10 -14 -2
-52 -7 -85 -10 -33 -3 -71 -8 -85 -10 -14 -2 -50 -7 -80 -10 -30 -4 -82 -10
-115 -15 -33 -5 -87 -12 -120 -15 -33 -3 -83 -10 -111 -16 -28 -5 -61 -12 -75
-14 -240 -44 -313 -63 -494 -122 -540 -177 -1092 -472 -1605 -857 -404 -303
-922 -765 -1143 -1019 -37 -43 -75 -86 -85 -96 -74 -76 -138 -155 -225 -275
-79 -111 -258 -338 -287 -366 -12 -12 -178 -207 -197 -233 l-22 -28 -14 23
c-21 34 -136 246 -209 388 -188 361 -228 436 -299 557 -64 110 -157 237 -265
363 -224 261 -292 332 -399 419 -252 205 -582 385 -880 481 -105 33 -377 104
-439 114 -19 3 -55 10 -78 15 -42 9 -80 16 -155 26 -21 3 -47 7 -58 10 -11 2
-51 7 -90 10 -38 4 -81 8 -95 11 -50 8 -259 18 -405 18 -226 0 -425 -13 -610
-40 -60 -9 -119 -17 -130 -19 -18 -2 -104 -18 -160 -29 -11 -2 -60 -14 -110
-26 -49 -12 -97 -23 -105 -25 -279 -61 -751 -249 -1069 -427 l-93 -51 6 -51
c7 -69 15 -126 21 -156 3 -14 7 -34 9 -45 17 -90 40 -192 57 -255 12 -41 25
-91 29 -110 18 -70 102 -308 152 -425 111 -266 246 -504 469 -830 19 -27 36
-52 39 -55 3 -3 32 -39 65 -80 82 -104 113 -138 250 -276 346 -348 759 -601
1228 -753 160 -52 373 -104 482 -117 22 -3 47 -7 55 -9 8 -2 47 -7 85 -11 39
-3 73 -8 76 -9 3 -2 66 -7 140 -11 230 -13 578 -8 719 11 19 2 58 7 85 10 115
14 352 58 434 81 29 8 55 13 58 11 2 -3 5 -1782 6 -3953 l2 -3949 1143 0
c1136 0 1142 0 1143 20 0 11 1 1504 1 3318 1 2366 4 3297 12 3293 6 -2 79 -34
161 -71 83 -36 159 -70 170 -75 197 -87 771 -281 903 -305 15 -2 38 -9 52 -14
23 -9 137 -38 184 -47 12 -2 57 -13 101 -23 44 -11 95 -23 114 -26 19 -3 37
-7 40 -9 3 -2 24 -7 46 -10 22 -4 56 -9 75 -13 44 -9 40 -8 75 -16 17 -3 48
-9 70 -12 22 -3 67 -10 100 -15 33 -5 76 -12 95 -14 19 -3 51 -7 70 -10 19 -3
64 -8 100 -11 36 -4 76 -8 90 -11 153 -25 884 -25 1015 0 11 2 52 7 90 11 39
4 77 9 85 10 31 4 116 18 135 21 11 2 49 9 84 15 36 5 67 12 70 13 3 2 22 7
41 10 252 39 716 197 1034 351 146 71 264 136 416 230 439 270 853 638 1277
1135 116 136 350 429 440 550 76 103 273 388 273 394 0 3 18 32 40 65 101 153
358 629 443 821 170 386 274 671 377 1033 l27 98 -91 68 c-385 285 -896 587
-1301 768 -38 17 -100 45 -137 62 -87 39 -369 151 -483 191 -292 103 -710 239
-785 255 -8 2 -87 21 -175 43 -145 37 -408 91 -510 107 -22 3 -67 10 -100 15
-68 11 -103 15 -195 25 -36 3 -85 8 -109 11 -124 13 -565 26 -574 17z m1464
-560 c19 -12 31 -28 35 -51 7 -36 6 -38 -111 -258 -26 -49 -73 -136 -103 -194
-30 -58 -68 -130 -85 -160 -16 -30 -54 -102 -84 -160 -31 -58 -72 -136 -93
-175 -20 -38 -61 -115 -90 -170 -29 -55 -65 -122 -80 -150 -15 -27 -57 -106
-93 -175 -135 -258 -144 -273 -172 -287 -24 -13 -32 -13 -70 1 -87 34 -99 75
-52 167 52 99 146 277 187 354 21 39 59 111 85 160 45 85 67 128 178 335 24
47 68 130 97 185 29 55 70 134 92 175 48 88 109 204 168 315 23 44 49 88 57
97 27 31 71 28 134 -9z m-9987 -459 c9 -3 80 -169 174 -407 182 -459 176 -441
168 -472 -8 -31 -86 -63 -122 -49 -27 10 -29 13 -164 359 -34 88 -68 174 -75
190 -47 109 -115 294 -115 312 0 40 88 85 134 67z m8192 -67 c38 -19 60 -45
68 -79 6 -27 -12 -67 -144 -313 -21 -38 -61 -115 -90 -170 -64 -122 -113 -214
-217 -410 -44 -82 -106 -199 -138 -260 -32 -60 -73 -137 -90 -170 -18 -33 -63
-118 -100 -190 -102 -196 -111 -207 -170 -210 -29 -2 -91 31 -109 57 -23 33
-20 68 13 129 15 30 92 176 171 324 178 337 223 422 270 510 21 39 61 115 90
170 97 183 183 347 269 508 67 124 100 144 177 104z m-7313 -184 c8 -10 36
-72 62 -138 26 -66 55 -138 65 -160 9 -22 21 -51 25 -65 4 -14 15 -43 25 -65
51 -119 170 -434 170 -453 0 -30 -32 -60 -74 -67 -66 -13 -69 -10 -157 213
-45 114 -121 308 -170 431 -49 123 -89 234 -89 246 0 54 107 97 143 58z m5583
-359 c48 -28 64 -50 64 -85 0 -18 -62 -144 -152 -309 -14 -25 -56 -103 -93
-175 -37 -71 -80 -152 -95 -180 -24 -44 -97 -182 -182 -345 -16 -30 -44 -82
-62 -115 -18 -33 -65 -123 -106 -200 -40 -77 -85 -162 -100 -190 -15 -27 -43
-78 -61 -113 -50 -97 -94 -110 -181 -56 -44 28 -60 54 -54 88 4 21 58 129 166
331 21 39 61 115 90 170 29 55 70 133 91 173 22 39 56 105 78 145 21 39 62
117 91 172 30 55 71 134 93 175 21 41 51 98 65 125 15 28 63 118 106 200 103
196 117 215 162 215 20 0 55 -11 80 -26z m-4552 -103 c8 -7 29 -50 46 -94 17
-45 35 -91 40 -102 8 -17 167 -420 273 -690 46 -119 48 -127 34 -146 -14 -19
-80 -49 -107 -49 -29 0 -45 30 -125 235 -43 110 -84 216 -92 235 -22 51 -29
70 -48 120 -9 25 -23 59 -30 75 -49 112 -135 344 -135 363 0 18 11 28 53 46
57 26 67 26 91 7z m-2476 -207 c136 -58 265 -114 287 -124 22 -10 105 -46 185
-80 80 -34 173 -75 208 -91 35 -16 67 -29 71 -29 4 0 25 -8 47 -19 21 -10 104
-47 184 -81 161 -69 498 -215 545 -236 17 -7 145 -62 285 -122 548 -236 636
-274 665 -286 17 -8 64 -28 105 -46 41 -18 93 -40 115 -50 22 -10 121 -52 220
-95 99 -42 188 -84 198 -94 44 -43 12 -123 -48 -123 -24 -1 -653 265 -873 367
-29 14 -58 25 -65 25 -7 0 -17 4 -23 9 -5 4 -49 25 -99 46 -49 21 -108 46
-130 56 -22 10 -141 61 -265 114 -124 53 -238 103 -255 110 -16 7 -79 35 -140
61 -60 25 -128 54 -150 64 -43 19 -150 65 -615 264 -330 142 -307 132 -413
180 -42 20 -80 36 -83 36 -3 0 -33 13 -67 28 -34 16 -93 41 -131 57 -72 30
-100 64 -88 107 5 22 48 58 69 58 8 0 126 -48 261 -106z m11959 -144 c6 0 18
-20 26 -45 l16 -45 -33 -25 c-46 -35 -205 -108 -306 -140 -47 -14 -209 -65
-360 -111 -151 -47 -304 -94 -340 -105 -116 -37 -542 -169 -640 -198 -52 -16
-176 -54 -275 -85 -99 -32 -187 -59 -195 -61 -8 -2 -46 -14 -85 -26 -38 -12
-74 -23 -80 -25 -5 -1 -84 -25 -175 -54 -155 -49 -368 -114 -470 -145 -25 -7
-178 -54 -340 -105 -162 -51 -315 -98 -340 -105 -25 -7 -90 -27 -145 -45 -55
-17 -152 -47 -215 -66 -63 -19 -133 -41 -155 -48 -22 -8 -93 -30 -158 -50
-169 -51 -325 -99 -462 -142 -66 -21 -124 -39 -130 -40 -13 -3 -412 -126 -535
-166 -52 -16 -99 -31 -105 -32 -5 -1 -50 -15 -100 -30 -546 -168 -804 -248
-825 -256 -38 -14 -100 -20 -277 -26 l-163 -7 0 45 c0 41 3 46 38 66 81 45
530 203 702 247 8 2 80 24 160 49 80 24 213 65 295 91 83 25 177 54 210 65 33
10 215 66 405 125 434 134 410 126 567 175 73 23 135 41 138 41 2 0 24 7 47
15 24 8 115 37 203 64 88 27 336 103 550 170 215 67 397 123 405 125 8 2 155
47 325 100 171 53 317 98 325 100 8 2 125 38 260 81 135 42 295 91 355 109 61
19 308 95 550 170 242 76 468 146 503 156 34 10 92 28 130 40 37 11 87 27 112
34 25 7 95 29 157 49 127 39 198 54 298 62 39 3 72 8 75 11 2 2 14 2 25 -1 11
-3 25 -6 32 -6z m-11514 -592 c27 -60 29 -76 10 -95 -10 -10 -109 -54 -218
-97 -110 -43 -213 -84 -230 -91 -130 -55 -445 -175 -460 -175 -30 0 -40 11
-60 63 -12 33 -15 54 -9 68 7 16 111 61 424 185 228 90 433 171 455 178 48 17
67 9 88 -36z m1052 -364 c18 -7 55 -75 55 -101 -1 -44 -15 -50 -730 -329 -91
-36 -174 -69 -185 -74 -92 -42 -120 -42 -149 2 -26 40 -30 81 -9 105 10 11 68
40 128 63 122 47 153 60 207 84 20 9 39 16 42 16 7 0 479 185 511 200 23 11
97 38 107 39 3 1 14 -2 23 -5z m8520 -264 c6 -4 53 -30 105 -58 119 -62 200
-105 315 -166 50 -27 137 -73 195 -103 58 -31 141 -75 185 -98 111 -59 234
-124 340 -180 50 -26 117 -62 150 -80 33 -18 119 -63 190 -100 72 -37 138 -75
147 -83 51 -44 22 -146 -49 -171 -39 -14 -40 -14 -144 41 -57 31 -138 74 -179
95 -41 22 -113 60 -160 85 -47 25 -130 69 -185 98 -55 29 -131 69 -170 90 -38
21 -115 61 -170 90 -55 29 -122 65 -150 80 -27 15 -113 60 -190 100 -77 40
-144 76 -150 80 -5 4 -55 30 -110 59 -128 66 -150 99 -116 172 26 55 102 81
146 49z m-7552 -248 c8 -20 12 -43 10 -53 -7 -25 54 1 -783 -330 -123 -49
-233 -89 -242 -89 -25 0 -59 58 -56 95 3 34 1 33 643 285 171 67 323 128 339
135 39 18 71 2 89 -43z m5872 -298 c39 -20 97 -50 130 -68 33 -18 123 -66 200
-106 77 -40 145 -76 150 -80 6 -4 78 -42 160 -85 83 -43 164 -86 180 -95 17
-10 93 -50 170 -90 77 -41 162 -86 188 -102 26 -15 52 -28 58 -28 5 0 26 -10
47 -23 20 -13 96 -54 167 -91 72 -38 139 -77 150 -87 44 -43 5 -157 -60 -179
-39 -13 -47 -10 -195 70 -47 26 -141 76 -210 112 -69 36 -156 83 -195 103 -38
20 -113 60 -165 87 -52 28 -126 67 -165 88 -38 21 -119 63 -180 95 -60 32
-144 76 -185 98 -125 66 -211 112 -305 162 -101 54 -124 71 -136 101 -20 53
44 154 98 154 15 0 60 -16 98 -36z m-1646 -620 c80 -42 173 -91 206 -109 71
-38 194 -103 325 -173 52 -27 129 -67 170 -89 41 -22 116 -62 165 -88 50 -26
122 -64 160 -85 72 -38 152 -81 357 -189 127 -67 158 -96 158 -145 0 -55 -54
-115 -105 -116 -18 0 -109 43 -250 119 -27 14 -108 57 -180 95 -71 38 -157 83
-190 101 -93 50 -219 117 -340 180 -60 32 -132 70 -160 85 -27 15 -95 51 -150
80 -460 242 -421 218 -434 264 -9 35 6 83 36 114 44 47 65 43 232 -44z"/>
<path d="M7298 6866 c-2 -6 -4 -1237 -4 -2736 l1 -2725 1425 1 c1251 1 1521 4
1630 18 14 2 50 6 80 10 165 21 399 89 555 160 71 33 211 111 225 126 3 3 32
25 65 49 88 64 234 218 296 313 157 239 219 451 224 768 4 218 -11 329 -67
495 -110 324 -374 623 -673 764 -82 39 -234 91 -264 91 -38 0 -22 16 35 34 88
28 266 121 352 185 83 61 193 167 240 229 15 21 29 39 32 42 3 3 25 35 48 72
194 310 234 824 95 1198 -76 203 -195 370 -369 520 -59 50 -172 127 -235 159
-35 18 -71 36 -79 41 -109 66 -435 154 -645 176 -33 3 -71 8 -85 11 -14 4
-667 7 -1452 8 -1060 2 -1428 0 -1430 -9z m2512 -989 c14 -4 59 -14 100 -23
168 -36 313 -130 385 -250 48 -79 67 -151 70 -270 6 -202 -48 -331 -185 -437
-81 -64 -209 -116 -322 -132 -23 -3 -56 -9 -73 -12 -34 -7 -1124 -12 -1142 -5
-10 3 -13 127 -13 572 l0 568 578 -3 c317 -1 588 -5 602 -8z m318 -2210 c29
-8 56 -16 60 -16 82 -10 244 -111 315 -196 103 -125 146 -334 106 -527 -39
-196 -163 -332 -359 -398 -132 -44 -184 -47 -921 -47 l-699 0 0 602 0 603 723
-3 c616 -2 730 -5 775 -18z"/>
</g>
</svg>
